<svg width="171" height="71" viewBox="0 0 171 71" fill="none" xmlns="http://www.w3.org/2000/svg">
<path d="M82.7585 33.1672V24.4399H86.2017C86.8636 24.4399 87.4276 24.5663 87.8935 24.8192C88.3594 25.0692 88.7145 25.4172 88.9588 25.8632C89.206 26.3064 89.3295 26.8177 89.3295 27.3973C89.3295 27.9768 89.2045 28.4882 88.9545 28.9314C88.7045 29.3746 88.3423 29.7197 87.8679 29.9669C87.3963 30.2141 86.8253 30.3376 86.1548 30.3376H83.9602V28.8589H85.8565C86.2116 28.8589 86.5043 28.7979 86.7344 28.6757C86.9673 28.5507 87.1406 28.3788 87.2543 28.1601C87.3707 27.9385 87.429 27.6842 87.429 27.3973C87.429 27.1075 87.3707 26.8547 87.2543 26.6388C87.1406 26.42 86.9673 26.251 86.7344 26.1317C86.5014 26.0095 86.206 25.9484 85.848 25.9484H84.6037V33.1672H82.7585ZM90.5281 33.1672V24.4399H93.9712C94.6303 24.4399 95.1928 24.5578 95.6587 24.7936C96.1275 25.0266 96.484 25.3575 96.7283 25.7865C96.9755 26.2126 97.0991 26.714 97.0991 27.2908C97.0991 27.8703 96.9741 28.3689 96.7241 28.7865C96.4741 29.2013 96.1119 29.5194 95.6374 29.741C95.1658 29.9626 94.5948 30.0734 93.9244 30.0734H91.619V28.5905H93.6261C93.9783 28.5905 94.271 28.5422 94.5039 28.4456C94.7369 28.349 94.9102 28.2041 95.0238 28.0109C95.1403 27.8177 95.1985 27.5777 95.1985 27.2908C95.1985 27.001 95.1403 26.7567 95.0238 26.5578C94.9102 26.3589 94.7354 26.2084 94.4996 26.1061C94.2667 26.001 93.9727 25.9484 93.6175 25.9484H92.3732V33.1672H90.5281ZM95.2411 29.1956L97.4102 33.1672H95.3732L93.2511 29.1956H95.2411ZM98.4031 33.1672V24.4399H104.284V25.9612H100.248V28.0408H103.981V29.5621H100.248V31.6459H104.301V33.1672H98.4031ZM105.751 24.4399H108.026L110.43 30.3035H110.532L112.935 24.4399H115.211V33.1672H113.421V27.4868H113.349L111.09 33.1246H109.871L107.613 27.4655H107.54V33.1672H105.751V24.4399ZM118.576 24.4399V33.1672H116.731V24.4399H118.576ZM125.485 24.4399H127.33V30.1075C127.33 30.7439 127.178 31.3007 126.874 31.778C126.573 32.2552 126.151 32.6274 125.609 32.8944C125.066 33.1587 124.434 33.2908 123.712 33.2908C122.988 33.2908 122.354 33.1587 121.812 32.8944C121.269 32.6274 120.847 32.2552 120.546 31.778C120.245 31.3007 120.094 30.7439 120.094 30.1075V24.4399H121.94V29.9498C121.94 30.2822 122.012 30.5777 122.157 30.8362C122.305 31.0947 122.512 31.2979 122.779 31.4456C123.046 31.5933 123.357 31.6672 123.712 31.6672C124.07 31.6672 124.381 31.5933 124.646 31.4456C124.913 31.2979 125.119 31.0947 125.263 30.8362C125.411 30.5777 125.485 30.2822 125.485 29.9498V24.4399ZM128.848 24.4399H131.124L133.527 30.3035H133.63L136.033 24.4399H138.309V33.1672H136.519V27.4868H136.446L134.188 33.1246H132.969L130.711 27.4655H130.638V33.1672H128.848V24.4399ZM84.2628 48.1672H82.2855L85.2983 39.4399H87.6761L90.6847 48.1672H88.7074L86.5213 41.4342H86.4531L84.2628 48.1672ZM84.1392 44.7368H88.8097V46.1771H84.1392V44.7368ZM97.1257 39.4399H98.9709V45.1075C98.9709 45.7439 98.8189 46.3007 98.5149 46.778C98.2138 47.2552 97.7919 47.6274 97.2493 47.8944C96.7067 48.1587 96.0746 48.2908 95.353 48.2908C94.6286 48.2908 93.995 48.1587 93.4524 47.8944C92.9098 47.6274 92.4879 47.2552 92.1868 46.778C91.8857 46.3007 91.7351 45.7439 91.7351 45.1075V39.4399H93.5803V44.9498C93.5803 45.2822 93.6527 45.5777 93.7976 45.8362C93.9453 46.0947 94.1527 46.2979 94.4197 46.4456C94.6868 46.5933 94.9979 46.6672 95.353 46.6672C95.7109 46.6672 96.022 46.5933 96.2862 46.4456C96.5533 46.2979 96.7592 46.0947 96.9041 45.8362C97.0518 45.5777 97.1257 45.2822 97.1257 44.9498V39.4399ZM103.583 48.1672H100.489V39.4399H103.608C104.486 39.4399 105.242 39.6146 105.875 39.9641C106.509 40.3106 106.996 40.8092 107.337 41.4598C107.681 42.1104 107.853 42.8888 107.853 43.795C107.853 44.7041 107.681 45.4854 107.337 46.1388C106.996 46.7922 106.506 47.2936 105.867 47.643C105.23 47.9925 104.469 48.1672 103.583 48.1672ZM102.334 46.5862H103.506C104.051 46.5862 104.51 46.4896 104.882 46.2964C105.257 46.1004 105.539 45.7979 105.726 45.3888C105.917 44.9768 106.012 44.4456 106.012 43.795C106.012 43.1501 105.917 42.6231 105.726 42.2141C105.539 41.805 105.259 41.5038 104.887 41.3106C104.515 41.1175 104.056 41.0209 103.51 41.0209H102.334V46.5862ZM111.065 39.4399V48.1672H109.219V39.4399H111.065ZM112.25 40.9612V39.4399H119.418V40.9612H116.746V48.1672H114.922V40.9612H112.25Z" fill="white"/>
<path d="M7.66645 53.2999L15.206 55.4439L9.57947 45.6984L7.66645 53.2999Z" fill="#BFF594"/>
<path d="M2.493 44.3392L9.10947 44.3646L4.95141 37.1626L2.493 44.3392Z" fill="#BFF594"/>
<path d="M12.9958 62.5305L16.3861 56.9681L20.2842 63.7199L12.9958 62.5305Z" fill="#BFF594"/>
<path d="M15.8645 56.0647L12.4742 61.6272L8.57606 54.8753L15.8645 56.0647Z" fill="#BFF594"/>
<path d="M9.47521 44.998L2.85874 44.9726L7.01679 52.1746L9.47521 44.998Z" fill="#BFF594"/>
<path d="M30.1726 40.306L10.2547 44.7889L16.3313 55.314L30.1726 40.306Z" fill="#BFF594"/>
<path d="M28.6227 39.7004L5.85167 36.6429L9.90097 43.6565L28.6227 39.7004Z" fill="#BFF594"/>
<path d="M30.1819 42.4012L21.1845 63.2001L17.2852 56.4463L30.1819 42.4012Z" fill="#BFF594"/>
<path d="M71.7531 16.3972L69.8401 23.9986L64.2135 14.2532L71.7531 16.3972Z" fill="#BFF594"/>
<path d="M66.5796 7.43642L63.2934 13.1792L59.1353 5.97719L66.5796 7.43642Z" fill="#BFF594"/>
<path d="M77.0824 25.6278L70.57 25.7826L74.4681 32.5344L77.0824 25.6278Z" fill="#BFF594"/>
<path d="M70.0485 24.8793L76.5609 24.7244L72.6627 17.9726L70.0485 24.8793Z" fill="#BFF594"/>
<path d="M63.6591 13.8126L66.9453 8.06987L71.1034 15.2718L63.6591 13.8126Z" fill="#BFF594"/>
<path d="M49.247 29.3911L63.0882 14.3831L69.1649 24.9082L49.247 29.3911Z" fill="#BFF594"/>
<path d="M49.4975 27.746L58.2351 6.49698L62.2844 13.5106L49.4975 27.746Z" fill="#BFF594"/>
<path d="M51.0568 30.4468L73.5679 33.0542L69.6686 26.3004L51.0568 30.4468Z" fill="#BFF594"/>
<path d="M39.2417 70.1672L44.8682 64.7097H33.6151L39.2417 70.1672Z" fill="#BFF594"/>
<path d="M28.8947 70.1672L32.2249 64.4498H23.9088L28.8947 70.1672Z" fill="#BFF594"/>
<path d="M49.9002 70.1672L46.7781 64.4498H54.5745L49.9002 70.1672Z" fill="#BFF594"/>
<path d="M45.735 64.4498L48.8571 70.1672H41.0608L45.735 64.4498Z" fill="#BFF594"/>
<path d="M32.9564 64.4498L29.6262 70.1672H37.9423L32.9564 64.4498Z" fill="#BFF594"/>
<path d="M39.2416 44.1793L33.165 63.6702H45.3183L39.2416 44.1793Z" fill="#BFF594"/>
<path d="M37.9423 45.2189L23.9088 63.4104H32.0074L37.9423 45.2189Z" fill="#BFF594"/>
<path d="M41.0608 45.2189L54.5745 63.4104H46.7758L41.0608 45.2189Z" fill="#BFF594"/>
<path d="M39.2417 0L44.8682 5.45745H33.6151L39.2417 0Z" fill="#BFF594"/>
<path d="M28.8947 0L32.2249 5.71733H23.9088L28.8947 0Z" fill="#BFF594"/>
<path d="M49.9002 0L46.7781 5.71733H54.5745L49.9002 0Z" fill="#BFF594"/>
<path d="M45.735 5.71735L48.8571 2.08467e-05H41.0608L45.735 5.71735Z" fill="#BFF594"/>
<path d="M32.9564 5.71735L29.6262 2.08467e-05H37.9423L32.9564 5.71735Z" fill="#BFF594"/>
<path d="M39.2416 25.9879L33.165 6.49697H45.3183L39.2416 25.9879Z" fill="#BFF594"/>
<path d="M37.9423 24.9483L23.9088 6.75681H32.0074L37.9423 24.9483Z" fill="#BFF594"/>
<path d="M41.0608 24.9483L54.5745 6.75681H46.7758L41.0608 24.9483Z" fill="#BFF594"/>
<path d="M71.2333 52.7801L69.3203 45.1787L63.6938 54.9241L71.2333 52.7801Z" fill="#BFF594"/>
<path d="M66.0599 61.7408L62.7736 55.9981L58.6156 63.2001L66.0599 61.7408Z" fill="#BFF594"/>
<path d="M76.5626 43.5495L70.0502 43.3946L73.9484 36.6428L76.5626 43.5495Z" fill="#BFF594"/>
<path d="M69.5287 44.298L76.0411 44.4528L72.1429 51.2047L69.5287 44.298Z" fill="#BFF594"/>
<path d="M63.1393 55.3646L66.4256 61.1074L70.5836 53.9054L63.1393 55.3646Z" fill="#BFF594"/>
<path d="M48.7272 39.7862L62.5685 54.7942L68.6451 44.2691L48.7272 39.7862Z" fill="#BFF594"/>
<path d="M48.9778 41.4313L57.7153 62.6803L61.7646 55.6667L48.9778 41.4313Z" fill="#BFF594"/>
<path d="M50.537 38.7305L73.0481 36.1231L69.1488 42.8769L50.537 38.7305Z" fill="#BFF594"/>
<path d="M7.66639 17.9564L15.2059 15.8124L9.57941 25.5579L7.66639 17.9564Z" fill="#BFF594"/>
<path d="M2.49293 26.9172L9.1094 26.8917L4.95135 34.0937L2.49293 26.9172Z" fill="#BFF594"/>
<path d="M12.9957 8.72582L16.386 14.2883L20.2842 7.53646L12.9957 8.72582Z" fill="#BFF594"/>
<path d="M15.8645 15.1916L12.4742 9.62912L8.57599 16.381L15.8645 15.1916Z" fill="#BFF594"/>
<path d="M9.47514 26.2583L2.85867 26.2837L7.01673 19.0817L9.47514 26.2583Z" fill="#BFF594"/>
<path d="M30.1725 30.9503L10.2546 26.4674L16.3313 15.9423L30.1725 30.9503Z" fill="#BFF594"/>
<path d="M28.6226 31.5559L5.85161 34.6135L9.90091 27.5999L28.6226 31.5559Z" fill="#BFF594"/>
<path d="M30.1819 28.8552L21.1844 8.05623L17.2851 14.8101L30.1819 28.8552Z" fill="#BFF594"/>
</svg>
